<svg xmlns="http://www.w3.org/2000/svg" width="64" height="64" viewBox="0 0 64 64" fill="none" role="img" aria-label="Orchid AI logo">
  <defs>
    <linearGradient id="g1" x1="0" y1="0" x2="1" y2="1">
      <stop offset="0%" stop-color="#9b5de5" />
      <stop offset="100%" stop-color="#5bbaae" />
    </linearGradient>
  </defs>
  <circle cx="32" cy="32" r="30" fill="url(#g1)" opacity="0.08" />
  <g transform="translate(8 6)">
    <path d="M24 48C24 48 40 34.5 40 24C40 14.0589 31.9411 6 22 6C12.0589 6 4 14.0589 4 24C4 34.5 24 48 24 48Z" fill="#9b5de5"/>
    <circle cx="22" cy="24" r="8" fill="#f1c453"/>
    <path d="M22 12c3.5 0 6.5 1.5 8.7 3.9l-3.4 3.4A8.98 8.98 0 0 0 22 17z" fill="#5bbaae"/>
    <path d="M36 8l8 4-8 4-4 8-4-2 4-8z" fill="#7c3aed" opacity="0.9"/>
  </g>
  <path d="M48 28c3 0 6 2 6 5.5S51 41 48 41s-6-2.5-6-7.5S45 28 48 28z" fill="#7c3aed" opacity="0.15"/>
</svg>
